<svg width="144" height="125" viewBox="0 0 144 125" fill="none" xmlns="http://www.w3.org/2000/svg"><path d="M54.137 123.626L1.13 85.649V1.131h106.012v84.518l-53.006 37.977z" fill="#000"/><path d="M54.137 125l-.646-.485L0 86.215V0h108.274v86.215l-.485.323L54.137 125zM2.262 85.003l51.875 37.25 51.875-37.25V2.263H2.262v82.74z" fill="url(#paint0_linear)"/><path d="M120.315 57.126l-42.421 31.27 5.252 1.94-2.666 1.858L54.138 111.1l-9.13-6.545-3.475-2.666 42.825-45.168 3.313-3.475h-5.495l27.311-30.462" fill="#fff"/><path d="M120.315 57.126l-42.421 31.27 5.252 1.94-2.666 1.858L54.138 111.1l-9.13-6.545-3.475-2.666 42.825-45.168 3.313-3.475h-5.495l27.311-30.462" stroke="#fff" stroke-width="2.772" stroke-miterlimit="10"/><path d="M103.265 40.805L85.49 62.379l6.787-1.455-14.706 17.13 35.068-23.432" fill="#000"/><path d="M75.71 43.067l-2.585-5.333-5.898-.808 4.282-4.201-1.05-5.899 5.252 2.828 5.333-2.828-1.05 5.899 4.282 4.201-5.899.808-2.666 5.333z" fill="#DBB66B"/><path d="M107.467 66.58l19.554-7.838h-12.363" fill="#fff"/><path d="M107.143 14.059s24.725-10.666 32.967 12.605l-32.967-6.868" fill="#DBB66B"/><path d="M41.532 101.891l-30.22-21.493V11.313h85.73v26.26M54.783 19.148v52.44" stroke="#fff" stroke-width="2.772" stroke-miterlimit="10"/><path d="M120.314 57.126c10.934 0 19.797-8.863 19.797-19.796 0-10.934-8.863-19.797-19.797-19.797-10.933 0-19.796 8.863-19.796 19.797 0 10.933 8.863 19.796 19.796 19.796z" fill="#EED1A2"/><path d="M140.11 37.33c0 10.933-8.862 19.796-19.796 19.796-10.933 0-19.796-8.863-19.796-19.796 0-10.934 8.863-19.797 19.796-19.797 10.934 0 19.797 8.863 19.797 19.797z" stroke="#000" stroke-width="6.574" stroke-miterlimit="10"/><path d="M132.202 46.208c4.813-3.697 4.725-11.887-.195-18.292-4.921-6.406-12.812-8.6-17.625-4.904-4.812 3.698-4.725 11.888.196 18.293 4.92 6.405 12.811 8.6 17.624 4.903z" fill="#fff"/><path d="M114.256 41.854l9.05 2.666 5.414-7.837-5.818-7.515-8.888 3.232.242 9.454zm-3.959-18.828c-.243.162-.404.323-.566.404-2.99 2.343-5.09 5.414-6.141 9.05l-.404 1.535 8.646-3.07-.243-8.888-1.292.97zm-7.031 17.779l.485 1.454.242.727c.647 1.778 1.455 3.313 2.586 4.768 1.131 1.454 2.505 2.828 4.12 3.878l1.294.889-.243-9.211-8.484-2.505zm27.796 10.018l1.212-.97-8.807-2.585-5.01 7.272h2.262c3.798-.081 7.353-1.374 10.343-3.717zm5.09-6.544l.485-1.455.242-.727c1.05-3.636.97-7.434-.404-10.908l-.566-1.455-5.171 7.596 5.414 6.949zM131.87 24.32l-1.211-.889c-.243-.161-.404-.323-.566-.404-3.151-2.1-6.787-3.15-10.504-2.99l-1.616.082 5.575 7.272 8.323-3.07z" fill="#000"/><path d="M42.986 37.733v-6.14l-3.878-3.96H27.876l-3.878 3.96v24.482l3.878 3.878h11.232l3.878-3.878v-6.222H37.33v4.444h-7.676V33.29h7.676v4.444h5.656z" fill="#fff"/><path d="M35.31 34.097l-5.655-.808h-2.667l2.667 3.636" fill="#000"/><defs><linearGradient id="paint0_linear" x2="1" gradientUnits="userSpaceOnUse" gradientTransform="rotate(-90 58.321 66.674) scale(124.995)"><stop stop-color="#D18246"/><stop offset="1" stop-color="#DBB66B"/></linearGradient></defs></svg>