<svg data-name="Layer 1" xmlns="http://www.w3.org/2000/svg" viewBox="0 0 343.98 344.07"><path d="M171.5 0A171.5 171.5 0 1 0 343 171.5 171.5 171.5 0 0 0 171.5 0zm-26.27 247.68c-21.51 1.22-43-11.76-44.17-32.82-1.15-20.7 15-34.55 41.68-36.05 19.69-1.11 32 3.37 51.72 2.26A84.57 84.57 0 0 0 209 179c-2.94 35.58-28.72 66.71-63.77 68.68zm55.2-77.76c-20.56 1.18-33.44-3.61-54-2.42a85.36 85.36 0 0 0-15.14 2.21c3-38 29.94-71.28 66.53-73.39 22.45-1.29 44.89 12.57 46.11 35.07 1.21 22.12-15.66 36.92-43.5 38.53z" fill="#fff"/></svg>