<svg data-name="Layer 1" xmlns="http://www.w3.org/2000/svg" viewBox="0 0 343.98 344.07"><circle cx="172.11" cy="172" r="171.5" fill="#fff"/><path d="M143.35 179.31c-26.67 1.5-42.83 15.35-41.69 36.05 1.17 21.06 22.67 34 44.18 32.82 35-2 60.82-33.1 63.73-68.68a84.57 84.57 0 0 1-14.5 2.07c-19.69 1.11-32.07-3.37-51.72-2.26zm57.65-8.9c27.85-1.6 44.71-16.4 43.52-38.52-1.22-22.5-23.66-36.37-46.11-35.07-36.59 2.11-63.5 35.37-66.53 73.39A85.39 85.39 0 0 1 147 168c20.6-1.19 33.48 3.6 54 2.41z" fill="#4360df" fill-rule="evenodd"/></svg>