<svg data-name="Layer 1" xmlns="http://www.w3.org/2000/svg" viewBox="0 0 343.98 342.88"><circle cx="171.61" cy="171.5" r="171.5" fill="#4360df"/><path d="M142.85 178.81c-26.67 1.5-42.83 15.35-41.69 36.05 1.17 21.06 22.67 34 44.18 32.82 35-2 60.82-33.1 63.73-68.68a84.57 84.57 0 0 1-14.5 2.07c-19.69 1.11-32.03-3.37-51.72-2.26zm57.68-8.9c27.85-1.6 44.71-16.4 43.52-38.52-1.22-22.5-23.66-36.37-46.11-35.07-36.59 2.11-63.5 35.37-66.53 73.39a85.39 85.39 0 0 1 15.13-2.21c20.56-1.19 33.46 3.6 53.99 2.41z" fill="#fff" fill-rule="evenodd"/></svg>